<svg width="48" height="48" viewBox="0 0 48 48" fill="none" xmlns="http://www.w3.org/2000/svg">
  <rect width="48" height="48" rx="8" fill="#EEF2FF"/>
  <path d="M32.66 22.44L31.31 21.09C31.19 20.97 31.01 20.9 30.84 20.9C30.66 20.9 30.49 20.96 30.37 21.09L29.49 21.97L32.03 24.51L32.91 23.63C33.15 23.38 33.15 22.94 32.91 22.7C32.84 22.63 32.77 22.57 32.7 22.5L32.66 22.44ZM18 33H20.54L30.37 23.17L27.83 20.63L18 30.46V33ZM24 14C18.48 14 14 18.48 14 24C14 29.52 18.48 34 24 34C24.34 34 24.68 33.97 25.01 33.93C24.34 33.05 24 31.83 24 30.5C24 28.01 25.51 25.92 27.63 25.28C27.31 23.28 27.87 21.15 29.26 19.65C29.09 19.14 29 18.58 29 18C29 15.79 30.79 14 33 14C33.58 14 34.14 14.09 34.65 14.26C32.58 13.16 30.4 12.6 28 12.86C26.46 13.03 25.09 13.58 23.96 14.4C22.58 15.41 21.58 16.87 21.17 18.56C20.76 20.15 20.76 21.8 21.17 23.39C21.37 24.23 21.7 25 22.13 25.71C23.25 27.51 21.71 28 20.58 28.12C19.86 28.19 19.13 28.12 18.45 27.9C19.41 30.07 21.47 31.6 23.85 31.92C27.4 32.4 30.54 30.5 31.54 27.42C34.25 27.81 36 30.2 36 32.92C36 35.06 34.81 36.93 33 37.72C36.28 35.87 38 32.22 38 28C38 20.26 31.73 14 24 14Z" fill="#4F46E5"/>
</svg> 