<svg width="48" height="48" viewBox="0 0 48 48" fill="none" xmlns="http://www.w3.org/2000/svg">
  <rect width="48" height="48" rx="8" fill="#EEF2FF"/>
  <path d="M34 14H14C12.9 14 12 14.9 12 16V32C12 33.1 12.9 34 14 34H34C35.1 34 36 33.1 36 32V16C36 14.9 35.1 14 34 14ZM34 16V26H28C27.42 26 26.98 26.48 26.89 27.06L26.35 31.04L16.18 20.87C15.77 20.46 15.77 19.79 16.18 19.38C16.59 18.97 17.26 18.97 17.67 19.38L19.31 21.02L24.53 17.56C24.78 17.38 25.09 17.28 25.41 17.28C25.83 17.28 26.22 17.45 26.5 17.73L34 25.23V16ZM34 29.17L25.7 20.87L20.48 24.33C20.23 24.51 19.93 24.61 19.62 24.61C19.19 24.61 18.79 24.44 18.51 24.16L17.67 23.32L24.38 30.02C24.77 30.41 24.83 31.01 24.53 31.47C24.36 31.75 24.09 31.95 23.78 32H14V16H14.03L14 16.03V31.97L14.94 30.94C15.17 30.67 15.49 30.5 15.84 30.47L16.66 26.4L24.07 33.81C24.21 33.95 24.38 34.06 24.55 34.12C24.69 34.17 24.84 34.2 25 34.2C25.3 34.2 25.61 34.1 25.86 33.91C26.35 33.54 26.51 32.87 26.24 32.31L26.98 27.33L32.24 27.28L32.27 27.31C32.41 27.45 32.58 27.56 32.77 27.61C32.91 27.66 33.07 27.69 33.22 27.69C33.53 27.69 33.83 27.59 34.08 27.41C34.57 27.04 34.73 26.37 34.46 25.81L34 25.41V29.17Z" fill="#4F46E5"/>
</svg> 