<svg width="48" height="48" viewBox="0 0 48 48" fill="none" xmlns="http://www.w3.org/2000/svg">
  <rect width="48" height="48" rx="8" fill="#EEF2FF"/>
  <path d="M36 16C36 14.9 35.1 14 34 14H14C12.9 14 12 14.9 12 16V32C12 33.1 12.9 34 14 34H34C35.1 34 36 33.1 36 32V16ZM14 32V16H22V32H14ZM34 32H24V16H34V32ZM30 20H28V18H30V20ZM30 24H28V22H30V24ZM30 28H28V26H30V28ZM26 20H24V18H26V20ZM26 24H24V22H26V24ZM26 28H24V26H26V28ZM18 20H16V18H18V20ZM18 24H16V22H18V24ZM18 28H16V26H18V28Z" fill="#4F46E5"/>
</svg> 