<svg width="48" height="48" viewBox="0 0 48 48" fill="none" xmlns="http://www.w3.org/2000/svg">
  <rect width="48" height="48" rx="8" fill="#EEF2FF"/>
  <path d="M34 14H14C12.9 14 12 14.9 12 16V32C12 33.1 12.9 34 14 34H34C35.1 34 36 33.1 36 32V16C36 14.9 35.1 14 34 14ZM34 32H14V16H34V32ZM19 19H29C29.55 19 30 18.55 30 18C30 17.45 29.55 17 29 17H19C18.45 17 18 17.45 18 18C18 18.55 18.45 19 19 19ZM19 23H29C29.55 23 30 22.55 30 22C30 21.45 29.55 21 29 21H19C18.45 21 18 21.45 18 22C18 22.55 18.45 23 19 23ZM19 27H24C24.55 27 25 26.55 25 26C25 25.45 24.55 25 24 25H19C18.45 25 18 25.45 18 26C18 26.55 18.45 27 19 27Z" fill="#4F46E5"/>
</svg> 