<svg width="48" height="48" viewBox="0 0 48 48" fill="none" xmlns="http://www.w3.org/2000/svg">
  <rect width="48" height="48" rx="8" fill="#EEF2FF"/>
  <path d="M24 14C19.6 14 16 17.6 16 22C16 24.1 16.9 26.1 18.3 27.5C15.8 29.1 14 31.9 14 35C14 35.6 14.4 36 15 36C15.6 36 16 35.6 16 35C16 31.1 19.1 28 23 28H25C28.9 28 32 31.1 32 35C32 35.6 32.4 36 33 36C33.6 36 34 35.6 34 35C34 31.9 32.2 29.1 29.7 27.5C31.1 26.1 32 24.1 32 22C32 17.6 28.4 14 24 14ZM24 16C27.3 16 30 18.7 30 22C30 25.3 27.3 28 24 28C20.7 28 18 25.3 18 22C18 18.7 20.7 16 24 16Z" fill="#4F46E5"/>
</svg> 