<svg width="120" height="40" viewBox="0 0 120 40" fill="none" xmlns="http://www.w3.org/2000/svg">
  <path d="M19.111 5.778C15.333 5.778 12.258 7.56 10.436 10.276C8.614 12.993 8.295 16.44 9.582 19.444C10.87 22.449 13.573 24.556 16.756 25.111C19.938 25.667 23.12 24.556 25.244 22.222C27.369 19.889 28.178 16.62 27.347 13.636C26.516 10.651 24.17 8.298 21.138 7.467C20.466 7.287 19.785 7.2 19.111 7.111" fill="#4F46E5" />
  <path d="M19.111 32.889L26.889 22.222L19.111 7.111L11.333 22.222L19.111 32.889Z" fill="#4F46E5" />
  <path d="M40.444 27.556V12.444H44.556C45.867 12.444 47.124 12.964 48.043 13.883C48.962 14.803 49.481 16.06 49.481 17.371C49.481 18.682 48.962 19.939 48.043 20.859C47.124 21.778 45.867 22.298 44.556 22.298H42.667V27.556H40.444V27.556ZM44.556 20.445C45.333 20.445 46.079 20.136 46.629 19.586C47.179 19.036 47.489 18.29 47.489 17.513C47.489 16.736 47.179 15.989 46.629 15.439C46.079 14.889 45.333 14.58 44.556 14.58H42.667V20.445H44.556Z" fill="white" />
  <path d="M54.222 27.556V15.111H56.444V27.556H54.222ZM54.222 13.259V11.037H56.444V13.259H54.222Z" fill="white" />
  <path d="M66.667 17.778L64.444 18.889C64.168 18.352 63.706 17.927 63.136 17.693C62.567 17.46 61.931 17.435 61.345 17.622C60.758 17.81 60.263 18.199 59.946 18.719C59.629 19.239 59.511 19.855 59.611 20.456C59.711 21.057 60.024 21.603 60.495 21.991C60.966 22.379 61.563 22.58 62.173 22.556C62.952 22.564 63.702 22.267 64.267 21.733L66.489 22.844C65.525 24.334 63.901 25.204 62.178 25.133C61.276 25.137 60.385 24.921 59.585 24.505C58.784 24.089 58.098 23.487 57.587 22.75C57.076 22.012 56.756 21.162 56.654 20.274C56.552 19.387 56.67 18.49 57 17.666C57.33 16.842 57.862 16.117 58.547 15.558C59.231 14.999 60.046 14.624 60.92 14.47C61.793 14.316 62.692 14.387 63.527 14.677C64.362 14.967 65.105 15.465 65.689 16.125C66.045 16.644 66.337 17.22 66.555 17.833" fill="white" />
  <path d="M74.667 27.556V22.222C74.667 21.313 74.306 20.44 73.663 19.797C73.02 19.154 72.147 18.794 71.238 18.794C70.328 18.794 69.455 19.154 68.813 19.797C68.17 20.44 67.809 21.313 67.809 22.222V27.556H65.587V15.111H67.809V17.467C68.27 16.739 68.906 16.147 69.655 15.741C70.404 15.336 71.243 15.132 72.093 15.149C73.685 15.149 75.212 15.791 76.336 16.915C77.461 18.039 78.102 19.566 78.102 21.158V27.556H74.667Z" fill="white" />
  <path d="M83.333 27.556V22.222C83.333 21.313 82.973 20.44 82.33 19.797C81.687 19.154 80.814 18.794 79.905 18.794C78.996 18.794 78.122 19.154 77.48 19.797C76.837 20.44 76.476 21.313 76.476 22.222V27.556H74.254V15.111H76.476V17.467C76.937 16.739 77.572 16.147 78.322 15.741C79.071 15.336 79.91 15.132 80.76 15.149C82.352 15.149 83.879 15.791 85.003 16.915C86.128 18.039 86.769 19.566 86.769 21.158V27.556H83.333Z" fill="white" />
  <path d="M92.444 27.556V15.111H94.667V17.333C95.128 16.599 95.77 15.997 96.533 15.58C97.295 15.163 98.151 14.943 99.022 14.941C100.584 14.933 102.085 15.55 103.2 16.667C104.317 17.78 104.934 19.28 104.926 20.843C104.918 22.405 104.286 23.899 103.158 24.998C102.03 26.098 100.523 26.696 98.961 26.669C98.096 26.667 97.245 26.452 96.486 26.042C95.727 25.632 95.084 25.04 94.617 24.316V27.559L92.444 27.556ZM94.622 20.856C94.618 21.403 94.74 21.942 94.976 22.427C95.212 22.913 95.556 23.331 95.979 23.646C96.401 23.96 96.89 24.16 97.404 24.227C97.918 24.295 98.44 24.226 98.921 24.029C99.401 23.831 99.823 23.509 100.149 23.096C100.475 22.683 100.694 22.192 100.784 21.67C100.874 21.149 100.831 20.613 100.66 20.113C100.489 19.613 100.196 19.165 99.81 18.811C99.423 18.457 98.956 18.207 98.455 18.082C97.953 17.958 97.432 17.964 96.934 18.1C96.436 18.236 95.974 18.498 95.596 18.861C95.218 19.225 94.935 19.678 94.775 20.182C94.676 20.403 94.622 20.621 94.622 20.856Z" fill="white" />
  <path d="M110.482 27.556V14.889H115.333C116.521 14.889 117.661 15.356 118.498 16.193C119.336 17.03 119.802 18.169 119.802 19.358C119.802 20.546 119.336 21.685 118.498 22.522C117.661 23.36 116.521 23.826 115.333 23.826H112.704V27.556H110.482ZM115.333 21.604C115.891 21.604 116.426 21.38 116.823 20.983C117.22 20.586 117.444 20.051 117.444 19.493C117.444 18.935 117.22 18.4 116.823 18.003C116.426 17.605 115.891 17.382 115.333 17.382H112.704V21.604H115.333Z" fill="white" />
</svg> 